<svg id="Layer_1" data-name="Layer 1" xmlns="http://www.w3.org/2000/svg" width="960" height="560" viewBox="0 0 960 560"><title>mecha-stilts</title><polygon points="479.9 162.4 574.8 217.2 574.8 326.8 479.9 381.6 385 326.8 385 217.2 479.9 162.4"/><path d="M424.8,312.5a1.8,1.8,0,0,1,0-3.6h9V297.6h-9a1.8,1.8,0,0,1-1.8-1.8V260.3a1.7,1.7,0,0,1,1.8-1.8h11.9c.9-25.6,20-39.6,43.2-39.6s42.3,14,43.2,39.6H535a1.7,1.7,0,0,1,1.8,1.8v35.5a1.7,1.7,0,0,1-1.8,1.8h-9v11.3h9a1.8,1.8,0,0,1,0,3.6Zm1.8-50.4V294H533.2V262.1Zm10.8,35.5v11.3H449V297.6Zm2.9-39.1h79.2c-.9-23.2-18.5-36-39.6-36S441.2,235.3,440.3,258.5Zm12.3,39.1v11.3h18V297.6Zm21.6,0v11.3h11.5V297.6Zm48.7-12.3H479a1.8,1.8,0,0,1,0-3.6h43.9a1.8,1.8,0,1,1,0,3.6Zm-33.6,12.3v11.3h18V297.6Zm21.6,0v11.3h11.5V297.6Z" fill="#fff"/></svg>