<svg id="Layer_1" data-name="Layer 1" xmlns="http://www.w3.org/2000/svg" width="960" height="560" viewBox="0 0 960 560"><title>sapce-bubble</title><polygon points="479.9 162.4 574.8 217.2 574.8 326.8 479.9 381.6 385 326.8 385 217.2 479.9 162.4"/><path d="M426.3,316.5l-4.1-6a1.7,1.7,0,0,1,.2-2.1l14.9-17.7h-7.4a1.7,1.7,0,0,1-1.8-1.8V276a1.7,1.7,0,0,1,1.8-1.8h10.5a49.4,49.4,0,0,1-2-13.7,42.6,42.6,0,1,1,83.1,13.7H532a1.7,1.7,0,0,1,1.8,1.8v12.9a1.7,1.7,0,0,1-1.8,1.8h-9.2l14.8,17.7a2,2,0,0,1,0,2.1l-4.2,6a1.8,1.8,0,0,1-2.3.5l-8.7-4.5H437.3l-8.6,4.5A2,2,0,0,1,426.3,316.5Zm27.4-25.8H441.8L426,309.4l2.5,3.6,30.4-16Zm-22-12.9v9.3h98.5v-9.3Zm12.4-3.6h73.7a45.1,45.1,0,0,0,2.1-13.7,39,39,0,0,0-77.9,0C442,265.2,442.3,270,444.1,274.2Zm17.3,25.7-17.1,9h24.5Zm-3-9.2,15.1,18.2h12.9l15.2-18.2Zm40.1,9.2-7.4,9h24.5Zm19.6-9.2H506.2l-5.4,6.3,30.6,16,2.6-3.4Z" fill="#fff"/></svg>