<svg id="Layer_1" data-name="Layer 1" xmlns="http://www.w3.org/2000/svg" width="960" height="560" viewBox="0 0 960 560"><title>super-domes</title><polygon points="479.9 162.4 574.8 217.2 574.8 326.8 479.9 381.6 385 326.8 385 217.2 479.9 162.4"/><path d="M427.9,312.5a1.7,1.7,0,0,1-1.8-1.8V288.9H402.3a1.8,1.8,0,0,1,0-3.6h13.5V273.6a1.7,1.7,0,0,1,1.8-1.8h7.1a57,57,0,0,1,55-43.7c.2-.2.4-.2.8,0,26.6.2,48.7,18.9,54.7,43.7h7a1.7,1.7,0,0,1,1.8,1.8v11.7h13.5a1.8,1.8,0,0,1,0,3.6H533.7v21.8a1.7,1.7,0,0,1-1.8,1.8Zm-8.5-37.1v9.9h121v-9.9Zm56.9-43.5c-23,1.4-42.3,18.1-47.9,39.9h19.3Zm-46.6,57v20h48.4v-20Zm48.4-53.4-25.9,36.3h25.9Zm3.6-3.8v40.1h49.7A53.5,53.5,0,0,0,481.7,231.7Zm0,57.2v20h8.1v-20Zm11.7,0v20h36.7v-20Z" fill="#fff"/></svg>